<!DOCTYPE svg PUBLIC "-//W3C//DTD SVG 1.1//EN" "http://www.w3.org/Graphics/SVG/1.1/DTD/svg11.dtd">

<!-- Uploaded to: SVG Repo, www.svgrepo.com, Transformed by: SVG Repo Mixer Tools -->
<svg width="20px" height="20px" viewBox="0 0 1024 1024" class="icon" version="1.1" xmlns="http://www.w3.org/2000/svg" fill="#000000">

<g id="SVGRepo_bgCarrier" stroke-width="0"/>

<g id="SVGRepo_tracerCarrier" stroke-linecap="round" stroke-linejoin="round"/>

<g id="SVGRepo_iconCarrier">

<path d="M377.299044 739.919922l24.860722-21.553951a2.505054 2.505054 0 0 0-0.149854-3.916176l-12.957346-9.6256a2.597463 2.597463 0 0 0-3.239337 0.119883c-25.432663 19.785678-38.424976 29.81838-38.979434 30.108098l-13.838985 7.190478a10.8544 10.8544 0 0 0-3.618966 3.039531 10.63961 10.63961 0 0 0 2.142907 15.037815l61.292644 45.890185c0.769249 0.571941 1.795746 0.674341 2.6624 0.259747l12.80999-6.099044c0.776741-0.367141 1.213815-1.398634 1.316215-3.084488-4.42318-12.989815-15.664702-27.35079-22.677854-34.151649-1.798244-1.743298-4.890224-4.348254-9.275941-7.822361a9.990244 9.990244 0 0 1-1.633405-14.033795c0.384624-0.497015 0.816702-0.951571 1.286244-1.358673z" fill="#FFC62E"/>

<path d="M345.038049 727.04999a1996.8 1996.8 0 0 0 7.375297-5.671961c6.468683-4.995122 16.034341-12.420371 28.691981-22.263258a10.090146 10.090146 0 0 1 12.415375-0.304703l12.957347 9.623103a10.002732 10.002732 0 0 1 0.591922 15.599766l-24.860722 21.551453a2.497561 2.497561 0 0 0 0.087414 3.848742c4.568039 3.611473 7.817366 6.356293 9.840391 8.316878 9.658068 9.358361 20.2752 24.543532 24.556019 37.113756l0.474537 1.396136-0.089912 1.476059c-0.249756 4.120976-1.715824 7.555122-5.574557 9.395824l-12.80999 6.099044a10.100137 10.100137 0 0 1-10.372371-1.024l-61.270165-45.880195a18.129795 18.129795 0 0 1-3.628956-25.602497 18.354576 18.354576 0 0 1 6.119024-5.134986l13.40441-6.965697c0.636878-0.472039 1.268761-0.949073 2.092956-1.573464z m45.68039-16.443941l-0.2048 0.164839c0.069932-0.054946 0.139863-0.107395 0.2048-0.164839z m-9.0112 57.898458c-1.575961-1.52601-4.508098-4.00359-8.711493-7.330341a17.482927 17.482927 0 0 1-0.601912-26.916215l20.175298-17.492917-4.990127-3.703883c-27.725424 21.563941-36.084761 28.010146-37.291083 28.637034l-13.838985 7.190478a3.364215 3.364215 0 0 0-1.121405 0.941581c-1.078946 1.406127-0.796722 3.384195 0.681834 4.483122l58.912468 44.111922 5.951688-2.837229c-4.20839-9.350868-12.140644-20.2752-19.166283-27.083552z" fill="#524F75"/>

<path d="M612.63922 747.447571l-24.293776-37.001366a2.510049 2.510049 0 0 0-3.249327-0.861659l-14.291044 7.345327c-1.406127 0.9216-1.723317 2.500059-0.956566 3.673912l41.252215 76.410381a10.914341 10.914341 0 0 0 2.450107 3.948644 10.689561 10.689561 0 0 0 15.212644 0.142361l54.828956-54.329444c1.051473-1.20882 0.939083-2.814751-0.11239-3.736351-7.29038-6.084059-11.186576-9.078634-11.688585-8.986225-13.891434 2.532527-24.765815 6.843317-32.623142 12.937366a74.752 74.752 0 0 0-4.008585 3.401678v-0.002497a14.985366 14.985366 0 0 1-22.520507-2.942127z" fill="#FFC62E"/>

<path d="M566.70158 710.66599l0.332176-0.217288 14.638205-7.527648a10.005229 10.005229 0 0 1 12.937366 3.40917l24.293775 37.003864a7.492683 7.492683 0 0 0 11.261503 1.468566 81.000898 81.000898 0 0 1 4.418185-3.741347c8.9088-6.908254 20.884605-11.65362 35.869971-14.385951a7.347824 7.347824 0 0 1 3.751337 0.249756c0.482029 0.154849 0.90162 0.337171 1.311219 0.541971 0.469541 0.242263 0.924098 0.512 1.421112 0.83918 0.72679 0.477034 1.615922 1.131395 2.722342 1.980566 2.043005 1.570966 4.910205 3.896195 8.763941 7.115551 4.240859 3.718868 4.508098 10.050185 0.82919 14.286049l-0.379629 0.407103-54.828956 54.329444a18.187239 18.187239 0 0 1-25.859746-0.239766 18.199727 18.199727 0 0 1-3.911181-6.056586l-40.907551-75.773502c-2.827239-4.705405-1.286244-10.65959 3.336741-13.689132z m77.059747 42.246244c-0.879141 0.681834-2.087961 1.708332-3.598986 3.064507-9.248468 8.276917-23.462088 7.492683-31.741502-1.755785a22.135883 22.135883 0 0 1-2.040507-2.65241l-21.838673-33.262517-5.801835 2.982088 39.239181 72.68402 0.192312 0.549463c0.164839 0.462049 0.427083 0.881639 0.764254 1.226302a3.196878 3.196878 0 0 0 4.565541 0.044957l50.952742-50.490693a171.302712 171.302712 0 0 0-3.918674-3.121951c-0.08242-0.062439-0.162341-0.127376-0.247258-0.187317-11.403863 2.360195-20.230244 6.0416-26.526595 10.919336z" fill="#524F75"/>

<path d="M433.9712 510.666302c-77.699122-6.413737-104.805151-21.888624-110.010068-42.765736-5.204917-20.877112 35.475356-43.552468 109.845229-65.301229" fill="#3D96C8"/>

<path d="M436.348878 500.666068c-69.134985-2.075473-99.495337-13.134673-105.157307-31.649092-4.21838-13.801522 31.11961-37.018849 101.588292-61.699747a7.492683 7.492683 0 1 0-4.955161-14.143688c-79.502361 27.845307-119.038751 53.819941-110.966634 80.224157 8.254439 27.001132 43.922107 39.993444 119.038752 42.246243a7.492683 7.492683 0 1 0 0.452058-14.977873z" fill="#524F75"/>

<path d="M343.12242 707.096976c28.679493 17.620293 90.112 29.191493 142.216117 29.678517 21.896117 0.202302 61.469971-4.545561 118.734048-14.243591 33.989307-9.535688 58.622751-22.165854 62.591376-71.09557 5.766868-71.143024 6.708449-117.510244 2.812254-139.096664-3.149424-17.480429-8.699005-48.068059-16.653737-91.762888C641.396137 357.798088 586.989268 312.195122 523.511259 312.195122H493.835239C430.779317 312.195122 376.60722 357.213659 364.733815 419.477854L335.996878 580.912702c-2.417639 13.581737-15.387473 22.6304-28.966712 20.215259a25.030556 25.030556 0 0 1-8.71399-3.321756l-6.358791-3.908683c-5.554576-2.864702-15.519844 1.086439-19.333619 7.018146-3.813776 5.931707 4.323278 35.92242 10.799454 47.181425 6.478673 11.24402 31.01721 41.382088 59.6992 58.999883z" fill="#3D96C8"/>

<path d="M339.198751 713.483239c-25.085502-15.412449-52.1216-44.02201-62.271688-61.659785-8.471727-14.72562-16.209171-46.257327-10.607141-54.971317 5.84679-9.096117 19.895571-14.350985 29.069112-9.6256l6.853307 4.193404a17.482927 17.482927 0 0 0 26.376742-11.820956l28.754419-161.524761C369.918751 352.283473 427.177834 304.702439 493.835239 304.702439h29.67602c67.101971 0 124.61081 48.200429 136.681521 114.533151 7.954732 43.699824 13.504312 74.289951 16.656235 91.777873 4.046049 22.453073 3.099473 69.214907-2.722342 141.029776-2.025522 24.998088-9.330888 42.653346-22.31321 55.116176-10.799454 10.364878-24.296273 16.576312-45.722848 22.585444-58.447922 9.940293-98.356449 14.728117-120.827005 14.518321-55.590712-0.512-117.06318-12.964839-146.064859-30.779941z m-59.941463-104.922537c0.279727 3.269307 1.04398 7.502673 2.185366 12.15563 2.27278 9.263454 5.719415 18.839102 8.476722 23.634419 8.936273 15.527337 34.234068 42.298693 57.126712 56.359961 26.246868 16.126751 85.244254 28.072585 138.36238 28.567103 21.271727 0.19481 60.391024-4.488117 117.020722-14.073756 19.023922-5.362263 30.457756-10.657093 39.009405-18.861581 10.120117-9.71801 16.004371-23.94162 17.755161-45.523044 5.711922-70.473678 6.638517-116.441288 2.907161-137.161054-3.151922-17.475434-8.699005-48.058068-16.653737-91.7504C634.672702 362.695805 583.360312 319.687805 523.511259 319.687805H493.835239C434.383298 319.687805 383.295688 362.143844 372.11161 420.791571l-28.736937 161.432351c-3.141932 17.652761-20.002966 29.418771-37.655727 26.276839a32.403356 32.403356 0 0 1-11.328936-4.318283l-6.006634-3.69639c-1.770771-0.659356-7.008156 1.296234-9.158556 4.053541-0.119883 1.211317-0.099902 2.475083 0.032468 4.021073z" fill="#524F75"/>

<path d="M645.869268 424.308137a52914.725463 52914.725463 0 0 1 16.194186 88.543531c3.786302 20.827161 2.872195 65.565971-2.737327 134.213932-3.858732 47.211395-27.810341 59.399493-60.868059 68.600507-55.683122 9.358361-94.173034 13.941385-115.467239 13.744078-14.283551-0.132371-30.212995-1.506029-46.179902-3.638946a38.417483 38.417483 0 0 1 8.374322-7.477698c24.848234-16.369015 40.283161-63.520468 42.713288-78.308526 4.940176-30.058146 5.44718-66.567493 5.117502-172.678869-0.174829-56.557268 40.43801-105.002459 96.158595-114.700487a85.608898 85.608898 0 0 1 15.180176-1.271259A127.17081 127.17081 0 0 1 645.869268 424.308137z" fill="#FFFFFF"/>

<path d="M618.146341 419.732605a45.305756 36.23961 90 1 0 72.47922 0 45.305756 36.23961 90 1 0-72.47922 0Z" fill="#FFFFFF"/>

<path d="M655.901971 460.944859c21.154341 0 37.708176-19.813151 37.708175-43.652371s-16.556332-43.652371-37.708175-43.652371c-21.154341 0-37.708176 19.813151-37.708176 43.652371s16.558829 43.652371 37.708176 43.652371z m0-14.985366c-12.225561 0-22.72281-12.567727-22.72281-28.667005s10.502244-28.667005 22.72281-28.667005c12.220566 0 22.72281 12.567727 22.722809 28.667005s-10.502244 28.667005-22.722809 28.667005z" fill="#524F75"/>

<path d="M672.238517 424.153288c-1.710829 2.227824-4.225873 3.636449-7.038127 3.636449-5.137483 0-9.29842-4.70041-9.298419-10.497249s4.160937-10.497249 9.298419-10.497249c5.072546 0 9.19602 4.585522 9.29842 10.284956l-6.893269 1.131395 4.632976 5.944195z" fill="#232323"/>

<path d="M625.996176 530.869073c12.842459-1.00402 23.95161-1.376156 43.789736-15.979395 8.271922-6.091551 23.25479-18.332098 30.242966-26.7264 6.618537-7.947239 4.503102-17.550361 0-23.916644-9.260956-13.089717-23.112429-13.83399-38.804605-18.734205-6.026615-1.880663-19.935532-5.884254-37.735649-9.268449 4.555551 13.594224 6.566088 29.978224 6.019122 49.152-0.474537 16.738654-1.643395 31.896351-3.51157 45.473093z" fill="#FFC62E"/>

<path d="M636.913015 478.247961c1.693346-14.575766 1.820722-27.800351 0.359648-39.681249 9.358361 2.967102 17.73518 6.03161 24.421152 8.781425 1.8432 0.756761 3.736351 1.486049 5.931707 2.290263 0.849171 0.312195 1.710829 0.621893 2.819746 1.021502l2.702361 0.969054c12.947356 4.660449 17.92999 7.722459 21.946069 14.610732 3.076995 5.269854 2.942127 10.871883-0.931591 14.770575-6.089054 6.136507-19.923044 16.094283-31.039687 22.870166-12.862439 7.839844-21.229268 10.494751-31.853893 10.969288 2.227824-11.211551 4.10599-23.409639 5.644488-36.601756z m-14.975376 51.624585l1.635902 0.017483c2.23282 0.022478 3.416663 0.029971 4.78283 0.017483 14.795551-0.12238 26.136976-3.219356 42.565931-13.234575 12.068215-7.35282 26.73639-17.915005 33.876918-25.107981 9.151063-9.223493 9.468254-22.208312 3.234341-32.882888-6.288859-10.766985-13.811512-15.394966-29.815883-21.154341l-2.717346-0.974049c-1.078946-0.387122-1.908137-0.686829-2.712352-0.984039a144.528859 144.528859 0 0 1-5.399726-2.085463c-9.845385-4.046049-23.010029-8.68402-37.603278-12.802498-5.50962-1.55598-10.65959 3.396683-9.315903 8.966244 3.131941 13.012293 3.671415 28.639532 1.555981 46.869229-1.903141 16.381502-4.345756 31.114615-7.327844 44.199337a7.492683 7.492683 0 0 0 7.240429 9.156058z" fill="#524F75"/>

<path d="M540.721951 424.727727a45.305756 36.23961 90 1 0 72.47922 0 45.305756 36.23961 90 1 0-72.47922 0Z" fill="#FFFFFF"/>

<path d="M578.390166 478.325385c26.748878 0 48.165463-23.33721 48.165463-51.816897 0-28.482185-21.414088-51.819395-48.165463-51.819395-26.753873 0-48.167961 23.33721-48.167961 51.819395 0 28.479688 21.414088 51.816898 48.167961 51.816897z m0-14.985365c-18.172254 0-33.182595-16.354029-33.182595-36.831532 0-20.48 15.007844-36.834029 33.182595-36.834029s33.180098 16.354029 33.180097 36.834029c0 20.477502-15.010341 36.831532-33.180097 36.831532z" fill="#524F75"/>

<path d="M599.689366 437.987278c-2.347707 2.967102-5.809327 4.847766-9.678049 4.847766-7.060605 0-12.787512-6.26638-12.787512-13.996332s5.726907-13.996332 12.787512-13.996332c6.975688 0 12.642654 6.114029 12.78002 13.714108l-9.478244 1.508527 6.376273 7.922263z" fill="#232323"/>

<path d="M308.815922 609.225054c12.934868 2.697366 23.477073 3.601483 31.768976 2.634926 8.029659-0.94158 14.238595-3.579005 19.780682-7.712468 1.795746-1.34119 5.849288-4.872741 6.243903-5.157463a7.487688 7.487688 0 0 0 1.675863-10.459786 7.487688 7.487688 0 0 0-10.462283-1.675863c-1.098927 0.794224-5.262361 4.42318-6.418731 5.282341-3.519063 2.624937-7.277893 4.220878-12.56523 4.840274-6.44121 0.754263-15.477385-0.024976-26.968663-2.420137a7.492683 7.492683 0 1 0-3.054517 14.668176z" fill="#524F75"/>

<path d="M564.556646 345.48652c48.273708-15.683463 79.395857-65.028685 71.216691-90.227038-8.186403-25.196413-57.612044 18.56317-105.879634 34.250166-48.268883 15.68217-114.222094 26.391083-106.033278 51.58685 8.188815 25.195767 92.424926 20.072839 140.696221 4.390022z" fill="#FFD04F"/>

<path d="M564.877269 354.209972c-25.509338 6.835206-59.660634 10.30014-88.259602 8.895282-34.083282-1.675493-56.795708-9.51094-61.195391-25.940429-3.795757-14.165957 5.784589-24.267632 24.577545-31.937983 12.481092-5.094794 24.870326-8.303296 56.087573-15.297529l4.641329-1.041959c12.700478-2.857508 20.74648-4.770375 28.574908-6.867995 6.144532-1.646422 12.63978-3.836725 19.675728-6.585613 7.976667-3.117309 15.783525-6.56921 27.153463-11.883405 27.778942-12.984426 31.492567-14.612977 40.646901-17.050359 14.881038-3.964091 25.752745-0.793086 29.224474 12.153934 8.742135 32.626091-31.895884 82.364638-81.126928 95.556056z m-3.88091-14.474106c21.417808-5.738884 41.158827-19.067308 55.005934-36.018822 12.451572-15.240792 18.182804-31.263954 15.526032-41.179159-0.813192-3.034873-2.972661-3.663751-10.893582-1.554274-7.853373 2.091376-11.677623 3.770255-38.161227 16.146443-11.638621 5.440487-19.692623 9.002566-28.041236 12.26608-7.522871 2.93883-14.530807 5.30012-21.253683 7.104094-8.072087 2.162909-16.281015 4.114261-29.165014 7.010601l-4.653392 1.04519c-30.267811 6.783789-42.319301 9.901793-53.700497 14.546731-12.627906 5.154818-16.962069 9.726646-15.766845 14.187282 4.531379 16.911335 78.482961 20.545468 131.10351 6.445834z" fill="#524F75"/>

<path d="M495.946978 342.913607c32.906697-16.514849 59.588333-47.046344 54.359117-64.168886-5.22745-17.125601-41.165706-44.473576-112.314655-22.247003-71.157953 22.231571-74.045028 89.128381-65.861037 114.32544 8.188815 25.195767 90.904408-11.395822 123.816575-27.909551z" fill="#FD6B4D"/>

<path d="M426.143717 248.535845c20.568785 13.441538 41.183024 26.415819 51.956412 37.499449 9.110717 9.375282 20.958957 26.371331 35.5436 50.993619 2.660097 4.494759-61.501109 37.061069-62.890257 33.893514-10.154279-23.151337-16.750448-41.833926-19.781915-56.05212-3.448871-16.161955-5.335801-44.742503-4.82784-66.334462z m3.206059-0.00062c30.731228-7.794845 55.482685-10.703619 75.632631-9.411079 20.1493 1.290128 36.287789 18.558724 57.346624 37.110097L556.378583 308.03699c-17.897789-21.479834-33.181496-37.52691-45.848065-48.139463-8.848705-7.413155-24.745908-12.751502-47.689844-16.0181-9.897546-1.407455-20.971574 5.290937-33.490898 4.655798z m-14.017788 4.464527C396.105319 290.529224 389.276858 306.944643 392.130925 323.222019c2.85342 16.274963 8.219642 37.508203 16.095605 63.697953L362.074693 380.289435c-0.21699-4.939949-3.551329-9.287659-3.538498-13.890996 0.071403-26.367063 3.92205-47.256751 11.545994-62.662299 8.958782-18.095487 23.13494-28.019419 45.249799-50.736388z" fill="#FF8B74"/>

<path d="M493.997155 344.98746c33.729126-14.767527 61.973205-43.858583 57.645429-61.235594-4.322305-17.375891-38.780081-46.571117-111.00387-28.095352-72.218964 18.474472-78.603256 85.134467-71.749777 110.72165 6.859597 25.590715 91.376679-6.622531 125.108218-21.390704zM425.077848 385.339404c-15.426612 3.944795-28.485768 5.936542-39.04348 5.548905-15.816062-0.58695-27.891007-6.714173-31.61889-20.626822-5.033644-18.785816-3.044079-45.183329 6.984769-67.950828 13.097053-29.738335 38.332697-51.65479 75.530134-61.169321 35.759265-9.14986 66.31625-8.215352 90.166525 1.174302 20.602146 8.113885 35.302063 22.590163 39.092009 37.815214 6.630674 26.675978-25.989903 60.991452-66.182946 78.587302C476.219775 369.127871 448.28202 379.406289 425.077848 385.339404z" fill="#524F75"/>

<path d="M440.783548 241.577543a15.205151 15.24761 75 1 0-29.45612 7.892743 15.205151 15.24761 75 1 0 29.45612-7.892743Z" fill="#FFD04F"/>

<path d="M431.286116 265.035234c-10.795752 2.892713-21.890592-3.494542-24.77878-14.273408-2.888188-10.778865 3.529009-21.858457 14.322349-24.750524 10.79334-2.892067 21.890592 3.494542 24.77878 14.273408 2.890601 10.778219-3.529009 21.858457-14.322349 24.750524z m-2.583253-9.650481a10.23001 10.23001 0 0 0 7.25818-12.515024 10.23001 10.23001 0 0 0-12.54328-7.209238 10.23001 10.23001 0 0 0-7.259946 12.518082 10.23001 10.23001 0 0 0 12.545046 7.20618z" fill="#524F75"/>

<path d="M401.507902 578.095454c-77.699122-6.413737-104.805151-21.888624-110.010068-42.763239s35.475356-43.552468 109.845229-65.30123" fill="#3D96C8"/>

<path d="M402.726712 569.798556c-69.020098-4.490615-98.978341-16.59879-103.988449-35.305522-3.736351-13.938888 32.393366-35.909932 103.681249-58.118244a7.492683 7.492683 0 1 0-4.455649-14.306029C317.534907 487.12679 277.116878 511.70279 284.2624 538.374244c7.307863 27.273366 42.500995 41.499473 117.490263 46.372215a7.487688 7.487688 0 1 0 0.974049-14.947903z" fill="#524F75"/>

<path d="M427.087922 579.434146m-9.990244 0a9.990244 9.990244 0 1 0 19.980488 0 9.990244 9.990244 0 1 0-19.980488 0Z" fill="#524F75"/>

</g>

</svg>